<svg width="151" height="60" viewBox="0 0 151 60" fill="none" xmlns="http://www.w3.org/2000/svg">
<g clip-path="url(#clip0_7_69)">
<path d="M60.6621 22.5C60.7044 23.3595 60.7614 24.1402 60.8359 24.8418C61.0075 26.4569 61.3219 27.7476 61.7793 28.7139C62.2512 29.6802 62.9228 30.4019 63.7949 30.8779C64.6814 31.3537 65.8263 31.6633 67.2275 31.8076C68.6288 31.9519 70.3518 32.0244 72.3965 32.0244H81.04C83.3424 32.0244 85.2518 31.9731 86.7676 31.8721C88.2831 31.7712 89.4775 31.4757 90.3496 30.9854C91.2358 30.4949 91.8646 29.6802 92.2363 28.541C92.6081 27.3872 92.7939 25.7713 92.7939 23.6943H96.9121C96.9121 26.3482 96.6338 28.4691 96.0762 30.0557C95.5186 31.642 94.6172 32.8387 93.373 33.6465C92.1434 34.4395 90.5137 34.9658 88.4834 35.2256C86.4671 35.4851 83.9859 35.6152 81.04 35.6152H72.3965C69.1791 35.6152 66.5333 35.3916 64.46 34.9443C62.3868 34.5118 60.7633 33.7041 59.5908 32.5215C57.1658 30.0444 56.6161 26.1314 56.4941 22.5H60.6621ZM113.72 22.5C113.762 23.3595 113.819 24.1402 113.894 24.8418C114.065 26.4569 114.38 27.7476 114.837 28.7139C115.309 29.6802 115.98 30.4019 116.853 30.8779C117.739 31.3537 118.884 31.6633 120.285 31.8076C121.686 31.9519 123.409 32.0244 125.454 32.0244H134.098C136.4 32.0244 138.309 31.9731 139.825 31.8721C141.341 31.7713 142.534 31.4756 143.406 30.9854C144.293 30.495 144.922 29.6804 145.294 28.541C145.666 27.3872 145.852 25.7713 145.852 23.6943H149.97C149.97 26.3482 149.692 28.4691 149.134 30.0557C148.576 31.6421 147.675 32.8387 146.431 33.6465C145.201 34.4395 143.571 34.9658 141.541 35.2256C139.525 35.4851 137.043 35.6152 134.098 35.6152H125.454C122.237 35.6152 119.591 35.3916 117.518 34.9443C115.444 34.5118 113.822 33.7041 112.649 32.5215C110.224 30.0447 109.674 26.1315 109.552 22.5H113.72ZM5.11816 34.9229H1V22.5H5.11816V34.9229ZM38.3857 29.7959H38.4287V22.5H42.5469V34.9229H38.2568L23.75 22.5H29.7939L38.3857 29.7959ZM5.11816 20.5H1V16.5H5.11816V20.5ZM27.4385 20.5H21.4141L16.7432 16.5H22.7275L27.4385 20.5ZM42.5469 20.5H38.4287V16.5H42.5469V20.5ZM60.5879 16.5C60.5819 16.9428 60.5781 17.4011 60.5781 17.875V18.7402C60.5781 19.3529 60.584 19.9395 60.5947 20.5H56.459C56.457 19.8917 56.46 19.302 56.46 18.7402V17.875C56.46 17.4045 56.4654 16.9462 56.4727 16.5H60.5879ZM113.646 16.5C113.64 16.9428 113.636 17.4011 113.636 17.875V18.7402C113.636 19.3529 113.642 19.9395 113.652 20.5H109.517C109.515 19.8917 109.518 19.302 109.518 18.7402V17.875C109.518 17.4045 109.523 16.9462 109.53 16.5H113.646ZM20.373 14.5H14.4072L5.16113 6.58203H5.11816V14.5H1V1.69238H5.29004L20.373 14.5ZM42.5469 14.5H38.4287V1.69238H42.5469V14.5ZM81.04 1C83.9859 1 86.4671 1.14416 88.4834 1.43262C90.5137 1.70666 92.1434 2.26219 93.373 3.09863C94.6173 3.92076 95.5186 5.13951 96.0762 6.75488C96.6337 8.35578 96.9121 10.4831 96.9121 13.1367H92.7939C92.7939 11.0456 92.608 9.42332 92.2363 8.26953C91.8647 7.10145 91.2359 6.25753 90.3496 5.73828C89.4775 5.2191 88.2832 4.90152 86.7676 4.78613C85.2518 4.65631 83.3424 4.5918 81.04 4.5918H72.3965C70.3518 4.5918 68.6288 4.65633 67.2275 4.78613C65.8263 4.9015 64.6814 5.18276 63.7949 5.62988C62.9229 6.06256 62.2512 6.75523 61.7793 7.70703C61.322 8.65883 61.0075 9.95667 60.8359 11.6006C60.7475 12.4482 60.6816 13.4147 60.6387 14.5H56.5332C56.6023 12.9925 56.7197 11.651 56.8887 10.4756C57.1745 8.47099 57.6686 6.84165 58.3691 5.58691C59.0698 4.33209 60.0205 3.37244 61.2217 2.70898C62.437 2.0456 63.9598 1.59893 65.79 1.36816C67.6202 1.12297 69.8226 1 72.3965 1H81.04ZM134.098 1C137.043 1 139.525 1.14416 141.541 1.43262C143.571 1.70665 145.201 2.26225 146.431 3.09863C147.675 3.92076 148.576 5.13951 149.134 6.75488C149.692 8.35578 149.97 10.4831 149.97 13.1367H145.852C145.852 11.0456 145.666 9.42332 145.294 8.26953C144.922 7.10125 144.293 6.25751 143.406 5.73828C142.534 5.21918 141.341 4.90152 139.825 4.78613C138.309 4.65631 136.4 4.5918 134.098 4.5918H125.454C123.409 4.5918 121.686 4.65633 120.285 4.78613C118.884 4.9015 117.739 5.18276 116.853 5.62988C115.98 6.06256 115.309 6.75521 114.837 7.70703C114.38 8.65883 114.065 9.95666 113.894 11.6006C113.805 12.4482 113.739 13.4147 113.696 14.5H109.591C109.66 12.9925 109.777 11.651 109.946 10.4756C110.232 8.47105 110.726 6.84163 111.427 5.58691C112.127 4.33209 113.078 3.37244 114.279 2.70898C115.495 2.04561 117.017 1.59893 118.848 1.36816C120.678 1.12297 122.88 1 125.454 1H134.098Z" fill="#0B2B6B"/>
<g clip-path="url(#clip1_7_69)">
<path d="M1.5 56V44H3V49.25H4.99219L12.75 44H15L6.5 49.875L15.25 56H13L5 50.5H3V56H1.5ZM18.85 56V44H20.35V54.75H29.85V56H18.85ZM33.45 56V44H34.95V56H33.45ZM39.5812 56V44H41.8156L49.0734 53.7891L56.2219 44H58.4562V56H56.9562V45.3594L49.7922 55.2109H48.4328L41.0812 45.3594V56H39.5812ZM62.0875 56L69.0875 44H71.0875L78.0875 56H76.3375L74.8375 53.25H65.3375L63.8375 56H62.0875ZM66.0875 52H74.0875L70.0875 45L66.0875 52Z" fill="#079BE5"/>
<path d="M86.9219 56V45.25H80.9219V44H94.4219V45.25H88.4219V56H86.9219ZM98.2562 56V44H110.037V45.25H99.7562V49.25H109.608V50.5H99.7562V54.75H110.256V56H98.2562ZM113.356 50.1562V49.8438C113.356 48.7812 113.408 47.8906 113.512 47.1719C113.617 46.4479 113.796 45.8594 114.052 45.4062C114.307 44.9531 114.653 44.6068 115.091 44.3672C115.533 44.1276 116.088 43.9661 116.755 43.8828C117.421 43.7943 118.223 43.75 119.161 43.75H122.309C123.382 43.75 124.286 43.8021 125.02 43.9062C125.76 44.0052 126.354 44.2057 126.802 44.5078C127.255 44.8047 127.583 45.2448 127.786 45.8281C127.989 46.4062 128.091 47.1745 128.091 48.1328H126.591C126.591 47.3776 126.523 46.7917 126.387 46.375C126.252 45.9531 126.023 45.6484 125.7 45.4609C125.382 45.2734 124.947 45.1589 124.395 45.1172C123.843 45.0703 123.148 45.0469 122.309 45.0469H119.161C118.416 45.0469 117.789 45.0703 117.278 45.1172C116.768 45.1589 116.351 45.2604 116.028 45.4219C115.71 45.5781 115.466 45.8281 115.294 46.1719C115.127 46.5156 115.012 46.9844 114.95 47.5781C114.887 48.1719 114.856 48.9271 114.856 49.8438V50.1562C114.856 51.0417 114.887 51.776 114.95 52.3594C115.012 52.9427 115.127 53.4089 115.294 53.7578C115.466 54.1068 115.71 54.3672 116.028 54.5391C116.351 54.7109 116.768 54.8229 117.278 54.875C117.789 54.9271 118.416 54.9531 119.161 54.9531H122.309C123.148 54.9531 123.843 54.9349 124.395 54.8984C124.947 54.862 125.382 54.7552 125.7 54.5781C126.023 54.401 126.252 54.1068 126.387 53.6953C126.523 53.2786 126.591 52.6953 126.591 51.9453H128.091C128.091 52.9036 127.989 53.6693 127.786 54.2422C127.583 54.8151 127.255 55.2474 126.802 55.5391C126.354 55.8255 125.76 56.0156 125.02 56.1094C124.286 56.2031 123.382 56.25 122.309 56.25H119.161C117.989 56.25 117.026 56.1693 116.27 56.0078C115.515 55.8516 114.924 55.5599 114.497 55.1328C114.075 54.7057 113.778 54.0911 113.606 53.2891C113.44 52.487 113.356 51.4427 113.356 50.1562Z" fill="#4B9B00"/>
<path d="M142.25 57.875V57" stroke="#4B9B00" stroke-width="1.5" stroke-linecap="square" stroke-linejoin="round"/>
<path d="M142.25 43V42.125" stroke="#4B9B00" stroke-width="1.5" stroke-linecap="square" stroke-linejoin="round"/>
<path d="M142.25 47.375C142.946 47.375 143.614 47.6516 144.106 48.1438C144.598 48.6361 144.875 49.3038 144.875 50C144.875 50.6962 144.598 51.3639 144.106 51.8562C143.614 52.3484 142.946 52.625 142.25 52.625" stroke="#4B9B00" stroke-width="1.5" stroke-linejoin="round"/>
<path d="M138.75 57L137.656 54.8125L135.25 55.25" stroke="#079BE5" stroke-width="1.5" stroke-linecap="square" stroke-linejoin="round"/>
<path d="M138.75 43L137.656 45.1875L135.25 44.75" stroke="#079BE5" stroke-width="1.5" stroke-linecap="square" stroke-linejoin="round"/>
<path d="M136.125 57.875L138.75 52.625L137.438 50H131.75" stroke="#079BE5" stroke-width="1.5" stroke-linecap="square" stroke-linejoin="round"/>
<path d="M136.125 42.125L138.75 47.375L137.438 50" stroke="#079BE5" stroke-width="1.5" stroke-linecap="square" stroke-linejoin="round"/>
<path d="M149.25 50H148.375" stroke="#4B9B00" stroke-width="1.5" stroke-linecap="square" stroke-linejoin="round"/>
<path d="M133.5 48.25L134.812 50L133.5 51.75" stroke="#079BE5" stroke-width="1.5" stroke-linecap="square" stroke-linejoin="round"/>
<path d="M147.815 55.565L147.202 54.9525" stroke="#4B9B00" stroke-width="1.5" stroke-linecap="square" stroke-linejoin="round"/>
<path d="M147.202 45.0475L147.815 44.435" stroke="#4B9B00" stroke-width="1.5" stroke-linecap="square" stroke-linejoin="round"/>
</g>
</g>
<defs>
<clipPath id="clip0_7_69">
<rect width="151" height="60" fill="white"/>
</clipPath>
<clipPath id="clip1_7_69">
<rect width="151" height="26" fill="white" transform="translate(0 37)"/>
</clipPath>
</defs>
</svg>
